<?xml version="1.0" standalone="no"?> <!DOCTYPE svg PUBLIC "-//W3C//DTD SVG 20010904//EN" "http://www.w3.org/TR/2001/REC-SVG-20010904/DTD/svg10.dtd"> <svg version="1.0" xmlns="http://www.w3.org/2000/svg" width="1080.000000pt" height="378.000000pt" viewBox="0 0 1080.000000 378.000000" preserveAspectRatio="xMidYMid meet"> <g transform="translate(0.000000,378.000000) scale(0.100000,-0.100000)" fill="#ffffff" stroke="none"> <path d="M8680 3490 l-15 -9 4 -478 3 -478 9 -11 c14 -17 67 -25 200 -31 l116 -5 64 30 c88 40 139 91 182 186 l17 39 1 132 0 132 -18 39 c-9 22 -39 60 -66 86 l-49 47 -45 7 c-99 15 -178 -8 -234 -69 -35 -38 -38 -30 -33 81 2 53 6 139 8 190 l4 92 -15 15 -14 15 -52 0 c-29 0 -59 -5 -67 -10z m366 -451 c11 -6 30 -29 43 -52 l23 -42 -4 -100 -5 -100 -14 -37 c-32 -79 -138 -123 -231 -97 l-38 10 0 117 0 117 14 50 c36 132 113 181 212 134z"/> <path d="M9430 3490 l-14 -9 2 -487 2 -488 10 -10 c5 -5 34 -11 64 -13 l54 -3 13 17 14 16 -2 321 c-2 177 1 389 5 471 l8 150 -13 23 -13 22 -58 0 c-31 0 -64 -4 -72 -10z"/> <path d="M153 3473 c-5 -2 -7 -699 -6 -1549 l2 -1545 1543 1 1543 1 11 12 12 12 -7 125 -6 125 -1410 -4 -1410 -4 0 1277 0 1276 15 0 c473 3 2515 -2 2519 -6 3 -3 6 -38 6 -77 l0 -72 129 -3 129 -3 11 11 10 10 0 205 1 205 -10 0 c-48 2 -3077 4 -3082 3z"/> <path d="M6872 3463 c-36 -18 -52 -46 -52 -94 l0 -31 29 -29 29 -29 42 0 c54 0 79 14 95 54 l14 33 -10 36 c-19 69 -80 94 -147 60z"/> <path d="M5743 3410 c-18 -4 -44 -15 -59 -25 l-26 -17 6 -31 c9 -52 10 -142 2 -155 l-7 -12 -60 0 -60 0 3 -57 3 -58 63 -3 62 -3 1 -12 c0 -7 0 -91 -1 -187 -1 -260 14 -318 88 -354 l33 -16 89 0 89 0 20 21 20 22 -6 31 c-13 67 -31 93 -48 66 -9 -15 -52 -12 -85 5 l-29 15 -11 38 -11 37 3 165 3 165 85 5 85 5 3 58 3 57 -86 0 -86 0 -5 13 c-3 8 -1 59 4 113 l9 99 -10 13 c-10 13 -35 14 -84 2z"/> <path d="M3886 3179 l-59 -10 -43 -32 -44 -32 -20 -41 -20 -40 0 -47 c0 -99 44 -149 165 -188 83 -27 107 -41 124 -73 l13 -23 -16 -31 -16 -30 -45 -17 -45 -18 -52 12 c-29 7 -65 15 -79 18 l-27 5 -6 -10 c-3 -6 -7 -36 -9 -67 l-2 -56 15 -9 c8 -5 62 -10 120 -10 l104 0 46 17 c65 24 108 60 141 117 l29 51 0 38 c0 65 -73 167 -120 167 -7 0 -26 6 -43 14 -18 8 -44 17 -58 20 -14 3 -38 17 -52 30 l-27 25 0 29 0 29 21 19 21 19 99 -2 98 -1 7 55 6 55 -8 8 c-15 14 -155 19 -218 9z"/> <path d="M5228 3180 l-57 -9 -39 -25 c-44 -28 -74 -71 -92 -131 l-12 -41 12 -44 12 -45 39 -37 c22 -21 46 -38 54 -38 7 0 26 -7 42 -15 15 -8 40 -17 55 -20 14 -3 40 -17 57 -31 l31 -26 0 -27 0 -28 -22 -21 c-13 -11 -36 -26 -53 -32 l-30 -11 -45 6 c-25 3 -60 11 -77 18 -40 14 -44 10 -54 -55 l-8 -52 16 -18 16 -18 109 0 c59 0 116 4 126 9 9 5 36 19 60 30 24 12 58 38 77 58 l33 36 6 43 c3 24 3 64 -1 89 l-6 46 -42 37 -43 38 -71 23 -71 23 -30 28 c-49 46 -31 100 40 118 l34 8 59 -9 60 -9 13 14 c8 7 17 34 20 59 l6 46 -26 7 c-48 12 -141 15 -198 6z"/> <path d="M6264 3176 c-44 -6 -92 -19 -107 -29 l-26 -17 6 -37 c3 -21 14 -47 23 -57 l19 -19 33 16 c18 9 68 19 109 23 l76 6 35 -11 35 -12 17 -38 c10 -21 16 -51 14 -67 l-3 -29 -85 -7 c-93 -8 -173 -27 -192 -46 -7 -7 -17 -12 -24 -12 -7 0 -28 -19 -48 -41 l-35 -42 -7 -43 c-3 -24 -3 -63 0 -87 l7 -42 32 -35 c17 -19 44 -43 59 -52 l27 -18 61 0 61 0 49 25 c28 14 56 34 62 45 7 11 18 20 25 20 l12 0 3 -37 3 -38 70 0 70 0 -2 253 c-2 282 -4 301 -40 354 l-25 37 -42 20 -41 19 -75 5 c-41 3 -111 0 -156 -7z m234 -398 c8 -73 -87 -178 -162 -178 l-33 0 -27 25 -26 24 0 35 0 35 23 26 22 26 70 19 c39 11 84 18 100 17 l30 -2 3 -27z"/> <path d="M7503 3178 l-61 -10 -45 -43 c-50 -50 -57 -49 -57 7 l0 39 -72 -3 -73 -3 -2 -332 -3 -332 13 -8 c6 -4 38 -8 69 -9 l57 -2 12 15 13 15 -3 172 -3 172 17 58 17 58 39 39 39 39 53 0 54 0 23 -25 24 -26 -2 -249 -3 -250 26 -10 c15 -6 46 -10 70 -10 l44 0 11 21 12 21 -4 266 -3 267 -17 30 c-9 17 -29 42 -45 57 l-28 26 -40 7 c-22 4 -47 8 -55 9 -8 2 -43 -1 -77 -6z"/> <path d="M8079 3176 c-42 -6 -86 -18 -99 -26 l-22 -16 7 -51 7 -52 18 -6 c11 -3 32 1 48 9 16 8 63 18 104 22 l75 6 35 -11 35 -12 17 -38 c10 -21 16 -51 14 -67 l-3 -29 -75 -6 c-132 -11 -216 -43 -274 -106 l-25 -27 -10 -48 -11 -48 11 -50 11 -50 29 -29 c16 -16 43 -37 61 -45 l31 -16 54 0 54 0 39 20 c22 11 55 34 75 51 l35 31 5 -14 c2 -7 5 -26 7 -43 l3 -30 61 -3 61 -3 10 13 10 13 -9 175 c-5 96 -6 194 -3 217 3 22 1 71 -6 107 l-11 67 -44 44 -44 44 -58 6 c-119 12 -149 12 -223 1z m239 -397 c2 -14 -6 -46 -17 -72 l-20 -46 -42 -31 -42 -30 -37 0 -37 0 -20 23 c-11 12 -25 31 -31 42 l-10 20 12 30 c7 17 20 36 29 44 23 18 145 51 182 48 l30 -2 3 -26z"/> <path d="M9967 3178 l-59 -9 -48 -35 c-114 -82 -164 -246 -126 -419 26 -123 76 -181 188 -220 l43 -15 90 0 90 0 68 16 67 17 6 21 c2 12 1 39 -4 61 l-8 40 -18 3 c-10 2 -41 -4 -69 -13 l-52 -17 -71 -1 -71 0 -44 29 -43 29 -18 50 c-10 28 -17 59 -16 70 l3 20 215 5 215 5 3 65 3 65 -17 55 c-30 98 -99 164 -186 175 -24 4 -52 8 -63 9 -11 2 -46 -1 -78 -6z m116 -124 l34 -16 21 -44 c12 -24 19 -50 16 -59 l-6 -15 -27 -1 c-14 0 -71 -3 -125 -5 l-100 -4 -8 12 c-12 19 1 70 26 96 44 49 112 63 169 36z"/> <path d="M4314 3169 c-3 -6 -6 -128 -5 -270 l2 -260 15 -41 c18 -51 38 -75 86 -99 l37 -19 64 0 64 0 49 26 c27 14 56 34 66 45 23 27 38 24 38 -8 0 -16 4 -34 9 -41 l8 -13 64 3 64 3 3 334 2 335 -12 8 c-7 4 -39 8 -70 8 l-57 0 -8 -12 c-4 -7 -6 -94 -4 -193 l3 -180 -18 -45 c-35 -92 -91 -140 -161 -140 l-35 0 -29 30 -30 29 1 245 c1 135 -2 250 -5 256 l-6 10 -64 0 -64 0 -7 -11z"/> <path d="M6850 3165 c0 -3 -1 -152 -1 -331 l0 -326 12 -14 11 -14 47 0 c26 0 55 6 65 13 l18 13 -1 330 -1 329 -75 3 c-41 2 -75 0 -75 -3z"/> <path d="M2075 2761 c-27 -9 -74 -29 -104 -44 l-55 -28 -72 -73 c-137 -137 -171 -319 -93 -491 36 -79 175 -208 259 -241 8 -3 30 -12 48 -20 17 -8 49 -21 70 -30 20 -9 49 -23 64 -30 14 -8 32 -14 40 -14 62 0 218 -123 256 -201 l22 -45 -1 -65 0 -64 -18 -43 c-9 -24 -36 -65 -59 -92 l-41 -48 -48 -23 -48 -23 -88 1 -88 1 -24 16 c-13 9 -30 16 -38 16 -49 0 -137 162 -137 253 0 12 -4 29 -10 37 l-9 14 -73 -18 c-40 -9 -93 -22 -118 -28 -25 -5 -53 -12 -63 -15 l-19 -5 7 -51 c4 -29 10 -56 14 -62 4 -5 17 -37 30 -70 13 -33 30 -67 37 -76 8 -8 14 -20 14 -26 0 -16 111 -133 126 -133 8 0 17 -7 20 -15 4 -8 12 -15 18 -15 7 0 17 -5 24 -12 16 -16 75 -36 157 -55 l70 -15 85 6 c118 7 165 18 241 54 l67 31 73 74 c41 41 81 90 90 108 32 68 48 105 61 149 l13 45 0 100 0 100 -14 45 c-25 83 -59 145 -113 202 -47 49 -149 128 -167 128 -3 0 -33 13 -66 29 -33 16 -96 44 -140 61 -186 74 -252 120 -278 195 l-14 39 9 44 c17 92 86 156 194 182 l52 13 66 -13 c36 -7 71 -18 77 -26 6 -8 18 -14 25 -14 7 0 21 -12 31 -27 10 -16 23 -32 30 -36 7 -4 13 -14 13 -21 0 -19 37 -49 52 -42 7 3 31 17 53 30 22 14 59 35 83 48 24 12 48 30 53 40 l9 17 -9 24 c-14 37 -165 183 -213 207 -24 12 -68 30 -98 41 l-54 19 -116 -1 -115 -1 -50 -17z"/> <path d="M2965 2768 c-3 -7 -4 -420 -3 -918 l3 -905 120 -3 c66 -1 129 -1 140 2 l20 5 -2 903 c-2 496 -5 908 -8 915 l-4 13 -131 0 -131 0 -4 -12z"/> <path d="M3764 2131 c-18 -11 -39 -30 -48 -42 l-16 -23 0 -42 0 -42 35 -31 c20 -17 47 -34 61 -37 l25 -6 36 18 c19 11 44 30 54 43 l19 24 0 37 0 36 -28 32 c-47 52 -90 62 -138 33z"/> <path d="M8235 2138 c-95 -53 -96 -161 -2 -209 l39 -21 30 13 c17 7 44 23 59 37 l29 24 0 47 0 47 -27 25 c-49 45 -92 57 -128 37z"/> <path d="M7808 2065 c-25 -7 -59 -19 -75 -27 l-28 -13 4 -97 3 -97 -26 -7 c-14 -3 -33 -4 -41 0 -8 3 -22 3 -30 0 l-15 -6 0 -58 0 -58 16 -6 c9 -3 31 -6 49 -6 l34 0 12 -21 11 -22 -7 -157 -7 -157 12 -59 c7 -32 21 -70 32 -84 l20 -25 51 -17 c63 -20 104 -21 177 -4 l55 12 3 52 c2 28 -2 60 -8 71 l-10 20 -49 -6 -49 -6 -25 25 -25 25 -7 161 -7 162 12 15 12 14 76 3 77 3 3 55 3 54 -18 13 -17 13 -56 -6 -56 -6 -18 17 c-9 10 -15 24 -12 31 8 20 9 190 2 203 -8 13 -16 13 -78 -4z"/> <path d="M4381 1831 c-25 -10 -62 -32 -82 -50 -47 -39 -47 -39 -51 7 l-3 37 -70 3 c-38 1 -75 -1 -82 -6 l-12 -8 -2 -323 -1 -324 13 -8 c8 -5 46 -9 86 -9 l72 0 7 11 c3 6 6 91 5 188 l-1 176 12 40 c24 75 79 125 138 125 l37 0 21 -23 22 -23 2 -244 3 -245 85 0 85 0 3 265 2 266 -27 54 -28 55 -54 28 -55 27 -40 -1 c-23 0 -61 -8 -85 -18z"/> <path d="M5146 1829 c-27 -11 -65 -33 -83 -50 -19 -16 -39 -29 -45 -29 l-10 0 5 29 6 28 -12 12 -11 11 -67 0 c-37 0 -71 -4 -74 -10 -3 -5 -6 -154 -6 -330 0 -176 3 -325 6 -330 l6 -10 72 0 c40 0 78 4 85 8 l13 9 -3 194 -2 194 28 47 c15 27 41 57 56 68 l28 20 35 0 35 0 23 -19 24 -19 0 -239 c0 -131 4 -244 8 -250 l8 -13 74 0 74 0 8 13 c8 13 6 425 -3 523 l-6 61 -31 34 c-61 66 -152 84 -241 48z"/> <path d="M5814 1832 c-112 -37 -191 -113 -226 -217 l-17 -50 0 -87 -1 -87 15 -48 c35 -106 92 -170 170 -186 17 -4 53 -12 80 -17 l50 -11 70 17 c128 30 213 110 251 233 26 87 13 270 -22 312 -8 8 -14 20 -14 26 0 12 -68 76 -100 93 -73 39 -177 48 -256 22z m143 -154 c35 -16 49 -32 73 -86 l20 -44 -1 -51 c-1 -151 -109 -243 -219 -189 l-34 17 -23 40 -23 40 0 85 0 85 32 46 c44 64 109 86 175 57z"/> <path d="M7091 1830 l-74 -19 -20 -20 -20 -20 10 -13 c6 -7 14 -30 18 -50 l7 -38 23 0 c12 0 39 7 58 15 l36 15 80 0 79 0 26 -31 26 -31 0 -29 0 -29 -22 -9 c-13 -4 -56 -11 -95 -15 -125 -11 -219 -63 -254 -140 l-19 -41 0 -48 0 -48 19 -37 c28 -54 59 -78 123 -97 l57 -16 58 17 58 18 32 29 31 29 11 -6 c6 -4 11 -18 11 -30 l0 -24 18 -4 c9 -2 46 -4 82 -3 l65 0 -3 255 -3 255 -15 47 -15 47 -37 29 c-77 61 -212 77 -351 42z m247 -407 l3 -32 -25 -39 c-14 -22 -35 -47 -48 -56 l-22 -16 -47 0 -47 0 -12 15 c-7 8 -13 33 -14 55 l-1 40 20 19 c28 27 103 51 150 48 l40 -2 3 -32z"/> <path d="M8740 1831 c-102 -38 -169 -99 -212 -190 l-21 -46 0 -130 1 -130 19 -35 c53 -101 122 -144 258 -164 l40 -6 66 18 c111 30 170 78 233 192 l20 35 0 135 -1 135 -21 40 c-71 133 -243 199 -382 146z m147 -151 c16 -6 41 -25 54 -43 l24 -32 0 -107 0 -107 -21 -28 c-67 -90 -176 -95 -236 -11 l-23 33 0 105 0 105 25 33 c41 55 110 75 177 52z"/> <path d="M9575 1826 c-28 -12 -66 -37 -85 -55 l-35 -32 -3 38 c-2 21 -9 41 -15 45 -17 11 -135 10 -142 -1 -8 -13 -8 -647 0 -660 l6 -11 69 0 c37 0 75 3 84 6 l16 6 0 200 0 200 16 34 c9 19 33 48 53 64 l36 30 37 0 38 0 20 -20 c31 -31 33 -59 27 -291 l-6 -217 16 -6 c22 -9 146 -7 161 2 l13 9 -9 279 -8 279 -20 30 c-57 88 -167 117 -269 71z"/> <path d="M10177 1830 c-27 -9 -67 -33 -90 -52 l-42 -35 -18 -49 c-22 -62 -22 -82 2 -137 l19 -45 34 -24 c18 -13 53 -32 78 -42 25 -10 61 -26 80 -37 l35 -18 3 -40 3 -40 -30 -15 -30 -16 -51 0 c-28 0 -66 7 -85 14 l-35 15 -9 -17 c-5 -9 -10 -42 -12 -72 l-4 -54 25 -13 c13 -7 48 -15 77 -19 l53 -6 78 17 c171 39 248 140 212 276 l-10 37 -38 34 c-20 18 -51 39 -67 45 -17 6 -52 19 -79 30 l-49 19 -21 27 -20 27 21 28 20 27 96 0 c111 0 103 -5 109 64 l5 54 -18 18 -19 19 -87 -1 -88 -2 -48 -17z"/> <path d="M3732 1821 l-14 -8 -1 -326 -2 -327 13 -5 c8 -3 47 -5 87 -5 l74 0 6 10 c4 6 6 155 5 332 l-1 322 -12 8 c-16 10 -139 10 -155 -1z"/> <path d="M6264 1815 c-4 -8 1 -30 10 -49 9 -19 16 -40 16 -48 0 -8 5 -19 11 -25 6 -6 14 -26 19 -44 9 -38 26 -89 45 -134 7 -16 27 -77 45 -135 79 -252 62 -230 180 -230 111 0 121 8 150 130 11 45 58 186 75 225 7 17 23 59 35 95 21 66 25 76 54 143 9 21 16 49 16 62 l0 25 -89 0 -88 0 -15 -42 c-8 -24 -20 -59 -27 -78 -7 -19 -17 -51 -21 -70 -13 -53 -37 -132 -49 -163 -6 -16 -11 -43 -11 -62 0 -19 -4 -37 -10 -40 -14 -8 -50 54 -50 87 0 15 -6 42 -14 60 -13 32 -24 67 -60 193 -10 33 -23 71 -30 85 l-12 25 -87 3 -87 3 -6 -16z"/> <path d="M8198 1819 l-18 -10 0 -323 0 -324 16 -6 c9 -3 46 -6 84 -6 l68 0 8 13 9 12 -5 325 -5 325 -70 2 -70 3 -17 -11z"/> <path d="M10243 868 l-23 -11 0 -21 c0 -12 -9 -29 -20 -39 -20 -17 -25 -42 -14 -71 l6 -16 23 0 23 0 14 22 15 22 12 -22 12 -22 21 0 c46 0 63 60 23 86 l-25 16 0 24 0 23 -19 11 c-23 12 -20 12 -48 -2z"/> <path d="M4568 833 c-9 -2 -19 -12 -22 -21 -4 -13 -1 -378 3 -424 1 -11 69 -10 75 0 3 5 6 102 7 217 l1 209 -18 13 c-10 7 -20 12 -23 12 -3 -1 -14 -3 -23 -6z"/> <path d="M6253 832 l-23 -3 -1 -22 c0 -12 0 -98 1 -190 l1 -168 -58 3 -58 3 -3 79 -3 79 -19 27 c-11 15 -33 33 -50 40 l-30 12 -53 -4 -53 -4 -26 -20 c-15 -10 -36 -36 -47 -57 l-21 -39 0 -42 0 -43 -17 -16 c-19 -16 -34 -20 -69 -18 l-21 1 -5 115 -5 115 -13 15 c-16 19 -54 19 -70 0 l-12 -15 7 -32 c4 -18 9 -70 12 -115 l4 -83 -36 0 -35 0 -10 26 c-6 14 -10 58 -10 98 l0 73 -19 17 -19 18 -21 -12 -21 -11 0 -89 0 -90 -20 -20 c-47 -47 -68 -19 -72 96 l-3 89 -33 3 -32 3 -10 -27 -10 -26 6 -49 7 -49 -17 -25 -16 -25 -50 0 -50 0 0 110 0 111 -22 8 c-13 5 -32 5 -43 1 l-20 -7 -3 -109 -3 -108 -9 -6 c-5 -3 -26 -4 -45 -2 l-35 4 0 23 c0 110 -180 271 -220 196 -16 -32 -13 -38 38 -67 27 -15 59 -41 70 -59 l22 -31 0 -32 0 -31 -87 -3 -88 -3 -3 -32 -3 -33 13 -1 c7 0 134 0 282 1 l269 1 24 16 24 16 20 -19 21 -19 44 2 44 1 16 16 c19 20 25 20 50 1 l19 -14 137 -1 136 0 31 17 30 18 33 -18 33 -17 195 2 195 3 0 219 0 219 -20 6 c-11 4 -30 5 -42 3z m-247 -220 c22 -14 34 -52 34 -106 l0 -56 -22 -2 c-42 -2 -70 3 -94 19 l-24 15 0 46 0 46 22 23 21 23 26 0 c14 0 31 -4 37 -8z"/> <path d="M7225 832 c-11 -2 -23 -9 -27 -16 -5 -8 -4 -358 1 -428 1 -5 18 -8 40 -8 l38 0 5 207 c6 255 5 258 -57 245z"/> <path d="M9704 825 c-4 -8 -10 -15 -15 -15 -5 0 -41 -22 -81 -50 -40 -27 -78 -50 -85 -50 -16 0 -32 -38 -25 -62 2 -9 24 -27 49 -39 l45 -22 29 -40 29 -40 0 -29 0 -28 -110 0 -110 0 0 98 -1 97 -14 18 -13 19 -89 1 -88 2 -32 -24 c-18 -13 -40 -40 -49 -59 l-16 -35 5 -59 5 -59 18 -20 c9 -10 31 -26 47 -34 l30 -15 248 0 249 0 6 26 7 26 -19 75 -19 75 -47 43 -47 42 17 15 c9 8 33 24 52 34 19 10 43 25 53 33 l17 14 0 32 0 33 -16 6 c-22 8 -24 8 -30 -9z m-356 -283 l3 -74 -10 -12 -11 -13 -32 5 c-18 2 -45 16 -60 30 l-28 26 0 26 c0 25 23 67 44 83 6 4 29 6 51 5 l40 -3 3 -73z"/> <path d="M6409 813 c-1 -10 0 -110 1 -223 l2 -205 11 -7 c16 -10 39 -10 57 2 l15 9 1 203 1 203 -9 18 -9 17 -34 0 -35 0 -1 -17z"/> <path d="M7582 608 l3 -223 390 0 390 0 3 142 3 142 -18 9 -18 10 -22 -9 -23 -8 0 -111 0 -110 -65 0 -64 0 -3 113 -3 112 -35 0 -35 0 -3 -112 -3 -113 -54 0 -55 0 0 18 c0 55 -86 192 -121 192 -20 0 2 19 65 54 l64 36 5 27 c15 78 -33 63 -211 -67 l-43 -32 3 -21 3 -22 49 -26 50 -26 23 -34 23 -33 0 -33 0 -33 -12 0 c-65 -3 -191 -1 -194 3 -3 3 -6 87 -7 188 l-2 184 -43 3 -42 3 2 -223z"/> <path d="M8450 803 c0 -16 14 -66 30 -113 17 -46 30 -92 30 -102 0 -10 5 -28 12 -41 6 -12 14 -29 18 -37 8 -17 58 -26 71 -13 l9 9 -9 30 c-16 53 -40 138 -57 204 -9 36 -18 71 -20 78 l-3 12 -41 0 -40 0 0 -27z"/> <path d="M8667 824 c-4 -4 -7 -90 -7 -190 l0 -183 -86 -3 -87 -3 -11 -17 -11 -18 11 -17 10 -16 125 2 c68 1 127 6 132 10 4 4 6 104 5 222 l-3 214 -35 3 c-20 2 -39 0 -43 -4z"/> <path d="M8847 823 c-4 -3 -7 -104 -7 -224 l0 -219 24 -6 c13 -3 33 -1 43 4 l19 10 -1 209 c0 114 -4 214 -8 221 -9 13 -59 17 -70 5z"/> <path d="M3840 790 c-25 -25 -25 -34 2 -60 23 -21 48 -27 48 -10 0 14 36 13 60 -2 l19 -12 21 19 21 19 -3 24 -3 25 -21 8 -21 7 -29 -14 -28 -15 -8 16 c-12 21 -34 19 -58 -5z"/> <path d="M5024 785 l-17 -26 13 -24 13 -25 23 0 c13 0 29 9 36 19 l14 20 12 -20 12 -19 25 0 25 0 6 25 c3 14 3 36 0 50 l-6 25 -20 0 c-11 0 -28 -8 -39 -19 l-18 -18 -12 18 c-6 11 -20 19 -31 19 l-20 0 -16 -25z"/> <path d="M6848 793 c-27 -32 -28 -40 -9 -62 19 -21 61 -29 61 -11 0 13 33 13 47 -1 l11 -11 21 7 c12 3 26 15 31 26 l11 19 -11 19 c-5 11 -19 23 -30 26 l-21 7 -15 -13 -15 -12 -25 12 c-33 15 -38 14 -56 -6z"/> <path d="M8052 794 c-27 -19 -28 -45 -2 -69 l20 -18 25 13 25 13 24 -12 23 -13 21 13 c38 24 37 73 -1 83 l-22 5 -20 -13 -21 -14 -25 14 -26 13 -21 -15z"/> <path d="M9210 790 c-11 -11 -20 -24 -20 -30 0 -35 62 -62 78 -34 l9 17 32 -19 31 -18 21 21 22 21 -7 25 c-8 33 -31 40 -66 22 l-28 -14 -12 14 c-17 20 -36 19 -60 -5z"/> <path d="M10398 698 c-1 -7 -2 -65 -2 -128 l-1 -115 -26 -3 -25 -3 -17 18 -16 19 -3 89 -3 90 -23 3 c-13 2 -30 -2 -38 -8 l-14 -12 0 -74 c0 -80 -11 -121 -36 -131 l-16 -6 -16 17 -17 17 -5 87 -5 87 -29 3 -29 4 -8 -14 c-5 -7 -9 -47 -9 -89 l0 -77 -14 -11 -15 -12 -43 3 -43 3 0 107 c0 58 -2 109 -5 111 -11 11 -56 17 -68 9 l-12 -8 -3 -171 -2 -170 -14 -16 -13 -17 -44 0 -43 0 -15 -16 c-20 -20 -20 -29 1 -49 l17 -17 58 4 58 4 30 29 c17 16 36 47 42 70 15 50 22 55 77 55 l44 0 19 17 18 16 20 -18 19 -18 47 1 47 1 17 16 c21 19 29 19 49 1 l16 -14 77 -6 77 -6 17 25 16 25 -5 107 c-2 60 -10 125 -16 146 l-12 37 -29 0 -30 0 -2 -12z"/> <path d="M3868 684 c-15 -3 -44 -21 -65 -40 l-37 -34 -4 -70 -4 -70 16 -26 c10 -14 31 -34 49 -44 l32 -20 303 0 302 0 0 109 0 108 -23 34 c-29 44 -60 59 -122 59 l-50 0 -38 -25 c-20 -14 -44 -39 -52 -55 l-15 -29 0 -54 0 -53 12 -12 12 -12 -62 0 -62 0 -2 13 c-1 6 -2 53 -2 104 l-1 92 -11 11 c-12 12 -132 21 -176 14z m96 -70 l16 -6 0 -79 0 -79 -43 0 -44 0 -21 23 c-11 12 -23 34 -27 49 l-7 26 11 20 c25 48 67 64 115 46z m391 -8 l19 -14 4 -71 4 -71 -46 0 -47 0 -24 25 -25 24 0 34 0 34 21 27 20 26 28 0 c15 0 36 -6 46 -14z"/> <path d="M6729 671 l-23 -19 -4 -68 -3 -69 24 -45 24 -45 49 -24 49 -24 118 -1 c65 -1 123 2 129 5 l9 6 0 134 c0 74 0 139 -1 145 0 17 -27 25 -55 18 l-24 -6 -3 -112 -3 -111 -59 -3 -59 -3 -31 12 c-66 26 -82 63 -67 156 l8 52 -11 11 c-15 15 -41 12 -67 -9z"/> <path d="M7419 668 c-1 -7 -2 -81 -3 -163 l-1 -151 -18 -27 -17 -27 -50 0 -49 0 -6 -19 c-27 -87 164 -81 204 7 l11 23 0 184 0 185 -35 0 -35 0 -1 -12z"/> <path d="M8294 329 l-18 -20 15 -27 c36 -64 100 -18 73 52 -9 23 -47 20 -70 -5z"/> </g> </svg>